# xmcd
#
# Track frame offsets:
# 150
# 2730
# 8578
# 20934
# 37929
# 49511
# 59279
# 77936
# 82579
# 94718
# 113055
# 127713
# 133872
# 145053
# 158250
# 160036
# 174896
# 181322
# 199407
# 223097
# 231688
# 251650
# 257839
# 271637
# 292329
# 307846
# 335694
#
# Disc length: 4784 seconds
#
# Revision: 0
# Processed by: cddbd v1.5PL3 Copyright (c) Steve Scherf et al.
# Submitted via: Audion 3.0.2 (http://www.panic.com/audion/)
#
DISCID=6912ae1b
DTITLE=Prefuse 73 - One Word Extinguisher
DYEAR=1900
DGENRE=
TTITLE0=The Wrong Side of Reflection 
TTITLE1=The End of Biters - International
TTITLE2=Plastic (feat. Diverse)
TTITLE3=Uprock and Invigorate (Prefuse 73 and Dabrye) 
TTITLE4=The Color of Tempo 
TTITLE5=Dave's Bonus Beats 
TTITLE6=Detchibe
TTITLE7=Altoid Addiction (interrude)
TTITLE8=Busy Signal (Make You Go Bombing Mix) (Prefuse 73 and Daedelus) 
TTITLE9=One Word Extinguisher 
TTITLE10=90% of My Mind Is With You 
TTITLE11=Huevos With Jeff and Rani (feat. Mr.Lif)
TTITLE12=Female Demands
TTITLE13=5
TTITLE14=1
TTITLE15=1
TTITLE16=1
TTITLE17=1
TTITLE18=1
TTITLE19=1
TTITLE20=1
TTITLE21=1
TTITLE22=1
TTITLE23=1
TTITLE24=11
TTITLE25=1
TTITLE26=5
EXTD=
EXTT0=
EXTT1=
EXTT2=
EXTT3=
EXTT4=
EXTT5=
EXTT6=
EXTT7=
EXTT8=
EXTT9=
EXTT10=
EXTT11=
EXTT12=
EXTT13=
EXTT14=
EXTT15=
EXTT16=
EXTT17=
EXTT18=
EXTT19=
EXTT20=
EXTT21=
EXTT22=
EXTT23=
EXTT24=
EXTT25=
EXTT26=
PLAYORDER=
